##     ##  ######   #######  
###   ### ##    ## ##     ## 
#### #### ##       ##     ## 
## ### ## ##        #######  
##     ## ##       ##     ## 
##     ## ##    ## ##     ## 
##     ##  ######   #######  


COUNTRY STRONG BRRip XviD - MC8


Release Name: Country Strong (2010) BRRip XviD - MC8 
Release Date:2011/26/3 
Filename: CNTRY.STRNG(2010).BRRip.XviD-MC8.avi 
Source: 720p BluRay x264 
Size: 699.82 MB Sample: 11 MB
Genre: Drama | Music
Video: 704 × 288 | 722 kbps |23.976 fps | DAR: 2.444
Audio: ENG | MP3 | VBR 112 Kbps
Subtitles: None
Runtime: 01:57:08 
IMDB Rating:5.4/10 (1,511 votes) 38 reviews 
Directed By:Shana Feste 
Starring:Gwyneth Paltrow, Tim McGraw, Garrett Hedlund



A drama centered on a rising country-music songwriter (Hedlund) who sparks with a fallen star (Paltrow). Together, they mount his ascent and her comeback, which leads to romantic complications involving her husband/manager (McGraw) and a beauty queen-turned-singer



IMDB: http://www.imdb.com/title/tt1555064/



General
Complete name : Country Strong BRRip XviD-MC8
Format : AVI
Format/Info : Audio Video Interleave
File size : 700 MiB
Duration : 1h 57mn
Overall bit rate : 835 Kbps

Video
ID : 0
Format : MPEG-4 Visual
Format profile : Advanced Simple@L5
Format settings, BVOP : 2
Format settings, QPel : No
Format settings, GMC : No warppoints
Format settings, Matrix : Default (H.263)
Codec ID : XVID
Codec ID/Hint : XviD
Duration : 1h 57mn
Bit rate : 722 Kbps
Width : 704 pixels
Height : 288 pixels
Display aspect ratio : 2.40:1
Frame rate : 23.976 fps
Color space : YUV
Chroma subsampling : 4:2:0
Bit depth : 8 bits
Scan type : Progressive
Compression mode : Lossy
Bits/(Pixel*Frame) : 0.149
Stream size : 605 MiB (86%)
Writing library : XviD 1.2.1 (UTC 2008-12-04)

Audio
ID : 1
Format : MPEG Audio
Format version : Version 1
Format profile : Layer 3
Mode : Joint stereo
Mode extension : MS Stereo
Codec ID : 55
Codec ID/Hint : MP3
Duration : 1h 57mn
Bit rate mode : Variable
Bit rate : 101 Kbps
Nominal bit rate : 112 Kbps
Channel(s) : 2 channels
Sampling rate : 44.1 KHz
Compression mode : Lossy
Stream size : 84.3 MiB (12%)
Alignment : Aligned on interleaves
Interleave, duration : 26 ms (0.63 video frame)
Interleave, preload duration : 82 ms
Writing library : LAME3.98r






================================== 
http://thepiratebay.org/user/hiest
==================================






SCREENS:
 
http://www.imagebam.com/image/46e057125289357
 
http://www.imagebam.com/image/a0b528125289363
 
http://www.imagebam.com/image/351b62125289366
 
http://www.imagebam.com/image/57f55d125289370


##     ##  ######   #######  
###   ### ##    ## ##     ## 
#### #### ##       ##     ## 
## ### ## ##        #######  
##     ## ##       ##     ## 
##     ## ##    ## ##     ## 
##     ##  ######   #######  
